<mxfile host="app.diagrams.net" modified="2023-08-29T02:15:31.296Z" agent="Mozilla/5.0 (Linux; Android 11; V2120) AppleWebKit/537.36 (KHTML, like Gecko) Chrome/106.0.0.0 Mobile Safari/537.36" version="21.6.9" etag="vbfv1RLLPMsjt6tq3kfP" type="github">
  <diagram name="Halaman-1" id="dK0FIaOL5NYcRDWsy3Xa">
    <mxGraphModel>
      <root>
        <mxCell id="0" />
        <mxCell id="1" parent="0" />
      </root>
    </mxGraphModel>
  </diagram>
</mxfile>
